G04 Layer_Color=16711935*
%FSLAX25Y25*%
%MOIN*%
G70*
G01*
G75*
%ADD99R,0.20600X0.40600*%
%ADD111C,0.06600*%
%ADD112C,0.06506*%
%ADD113R,0.06506X0.06506*%
%ADD114C,0.26575*%
%ADD115C,0.04143*%
%ADD116C,0.02800*%
D99*
X10500Y39000D02*
D03*
D111*
X43500Y132500D02*
D03*
X146500Y25500D02*
D03*
X82000Y35500D02*
D03*
D112*
X32500Y122500D02*
D03*
X42500Y122500D02*
D03*
X32500Y112500D02*
D03*
X42500D02*
D03*
X32500Y102500D02*
D03*
X42500D02*
D03*
X32500Y92500D02*
D03*
X46000Y158500D02*
D03*
X56000Y158500D02*
D03*
X66000D02*
D03*
X76000Y158500D02*
D03*
X86000D02*
D03*
X96000D02*
D03*
X106000Y158500D02*
D03*
X116000D02*
D03*
X126000Y158500D02*
D03*
X136000D02*
D03*
X146000Y158500D02*
D03*
X156000D02*
D03*
X166000Y158500D02*
D03*
X176000D02*
D03*
X186000D02*
D03*
X196000Y158500D02*
D03*
X206000D02*
D03*
X216000Y158500D02*
D03*
X226000D02*
D03*
X36000Y168500D02*
D03*
X46000D02*
D03*
X56000D02*
D03*
X66000D02*
D03*
X76000D02*
D03*
X86000D02*
D03*
X96000D02*
D03*
X106000D02*
D03*
X116000D02*
D03*
X126000D02*
D03*
X136000D02*
D03*
X146000D02*
D03*
X156000D02*
D03*
X166000D02*
D03*
X176000D02*
D03*
X186000D02*
D03*
X196000D02*
D03*
X206000D02*
D03*
X216000D02*
D03*
X226000D02*
D03*
X20500Y92500D02*
D03*
X10500D02*
D03*
X20500Y102500D02*
D03*
X10500Y102500D02*
D03*
X20500Y112500D02*
D03*
X10500Y112500D02*
D03*
X20500Y122500D02*
D03*
X10500D02*
D03*
X20500Y132500D02*
D03*
X10500D02*
D03*
X20500Y142500D02*
D03*
D113*
X42500Y92500D02*
D03*
X36000Y158500D02*
D03*
X10500Y142500D02*
D03*
D114*
X245173Y163500D02*
D03*
X245173Y72949D02*
D03*
X16827Y163500D02*
D03*
Y72949D02*
D03*
D115*
X14095Y6500D02*
D03*
X25905D02*
D03*
X51595D02*
D03*
X63406D02*
D03*
D116*
X200669Y118331D02*
D03*
X209331D02*
D03*
X200669Y109669D02*
D03*
X200669Y114000D02*
D03*
X209331Y109669D02*
D03*
Y114000D02*
D03*
X205000Y118331D02*
D03*
Y109669D02*
D03*
Y114000D02*
D03*
X200669Y22169D02*
D03*
Y26500D02*
D03*
Y30831D02*
D03*
X205000Y22169D02*
D03*
Y26500D02*
D03*
Y30831D02*
D03*
X209331Y22169D02*
D03*
X209331Y26500D02*
D03*
X209331Y30831D02*
D03*
X239000Y27000D02*
D03*
X198500Y43500D02*
D03*
Y132500D02*
D03*
X148000Y62500D02*
D03*
X158500Y74000D02*
D03*
Y77500D02*
D03*
X147000D02*
D03*
X148000Y59000D02*
D03*
Y55500D02*
D03*
X137000Y60500D02*
D03*
X131500Y46000D02*
D03*
Y49500D02*
D03*
Y53000D02*
D03*
X124000Y42500D02*
D03*
X148000Y52000D02*
D03*
Y48500D02*
D03*
X140500Y45000D02*
D03*
X146500Y147500D02*
D03*
X143500Y140000D02*
D03*
X151500Y129000D02*
D03*
X152000Y124500D02*
D03*
X152500Y147500D02*
D03*
X138500Y151500D02*
D03*
X98500Y147000D02*
D03*
Y143500D02*
D03*
X105000Y117500D02*
D03*
X78000Y76500D02*
D03*
X107500Y115000D02*
D03*
X110000Y112500D02*
D03*
X112500Y110000D02*
D03*
X115000Y107500D02*
D03*
X108500Y132500D02*
D03*
X87500Y134500D02*
D03*
X50000Y72500D02*
D03*
X60500Y20000D02*
D03*
X132500Y82500D02*
D03*
X113000D02*
D03*
X107000D02*
D03*
X91500D02*
D03*
X90000Y86000D02*
D03*
X92500Y107500D02*
D03*
X74500Y76500D02*
D03*
X71000Y84000D02*
D03*
X60000Y106000D02*
D03*
Y109500D02*
D03*
Y113000D02*
D03*
Y116500D02*
D03*
X65000Y120000D02*
D03*
X72500Y108000D02*
D03*
X97500Y125000D02*
D03*
X95000Y127500D02*
D03*
X125000Y97500D02*
D03*
X127500Y95000D02*
D03*
X130000Y92500D02*
D03*
X132500Y90000D02*
D03*
X135000Y87500D02*
D03*
X137500Y85000D02*
D03*
X140000Y82500D02*
D03*
X66500Y20000D02*
D03*
X69500Y26000D02*
D03*
X63500D02*
D03*
X38500Y35500D02*
D03*
X157500Y109000D02*
D03*
X160000Y107500D02*
D03*
Y111000D02*
D03*
X171500Y104000D02*
D03*
Y107500D02*
D03*
Y111000D02*
D03*
Y114500D02*
D03*
X186500Y104500D02*
D03*
X122500Y150000D02*
D03*
X155500Y140000D02*
D03*
X151500D02*
D03*
X189500Y97500D02*
D03*
X220500Y132500D02*
D03*
X212500D02*
D03*
X227500Y122500D02*
D03*
X220500Y42500D02*
D03*
X212500D02*
D03*
X227500Y34500D02*
D03*
X177500Y19500D02*
D03*
X187500Y17000D02*
D03*
X42500Y150000D02*
D03*
X52000D02*
D03*
X35000Y147500D02*
D03*
Y142500D02*
D03*
X85000Y143500D02*
D03*
X137500Y132500D02*
D03*
X135000Y130000D02*
D03*
X42500Y145000D02*
D03*
X52000D02*
D03*
X117500Y105000D02*
D03*
X120000Y102500D02*
D03*
X239000Y114500D02*
D03*
X132500Y127500D02*
D03*
X135000Y145000D02*
D03*
X142000Y151500D02*
D03*
X105500Y149969D02*
D03*
X127000Y151000D02*
D03*
X123500Y144000D02*
D03*
X116500Y143500D02*
D03*
Y147000D02*
D03*
X109500Y150000D02*
D03*
X95000Y147000D02*
D03*
X85000D02*
D03*
X28858Y22358D02*
D03*
X47547Y59547D02*
D03*
X110850Y7150D02*
D03*
X104500Y7000D02*
D03*
X98500D02*
D03*
X135000Y15000D02*
D03*
X157500Y11000D02*
D03*
Y19000D02*
D03*
X105000Y54500D02*
D03*
Y42500D02*
D03*
M02*
