M48
;Layer_Color=9474304
;FILE_FORMAT=2:5
INCH,LZ
;TYPE=PLATED
T1F00S00C0.00800
T2F00S00C0.03543
T3F00S00C0.03543
T4F00S00C0.04016
;TYPE=NON_PLATED
T5F00S00C0.03543
T6F00S00C0.10827
%
T01
X02975Y001
X03025
X03075
X03125
X02675
X02625
X02575
X02525
X02475
X02425
X02375
X02325
X02175
X01575Y0011
X011085Y000715
X01045Y0007
X00985
X0105Y00425
Y00545
X0107Y00825
X00915
X009Y0086
X0071Y0084
X00745Y00765
X0078
X005Y00725
X0047547Y0059547
X00385Y00355
X0028858Y0022358
X00605Y002
X00665
X00695Y0026
X00635
X006Y0106
Y01095
Y0113
Y01165
X0065Y012
X00725Y0108
X00925Y01075
X0105Y01175
X01075Y0115
X011Y01125
X01085Y01325
X00975Y0125
X0095Y01275
X00875Y01345
X0085Y01435
Y0147
X0095
X00985
Y01435
X01055Y0149969
X01095Y015
X0052
Y0145
X00425
Y015
X0035Y01475
Y01425
X01165Y01435
Y0147
X01225Y015
X0127Y0151
X01235Y0144
X0135Y0145
X01385Y01515
X0142
X01465Y01475
X01525
X01515Y014
X01555
X01435
X01375Y01325
X0135Y013
X01325Y01275
X01515Y0129
X0152Y01245
X01575Y0109
X016Y01075
Y0111
X01715
Y01075
Y0104
Y01145
X01865Y01045
X01895Y00975
X0200669Y0109669
X0205
X0209331
Y0114
Y0118331
X0205
Y0114
X0200669
X0200669Y0118331
X01985Y01325
X02125
X02205
X023Y0135
X0235
X024
X02425Y014
X02475
X0247619Y0132761
X0245919Y013005
X0244175Y0127367
X0243853Y0124183
X0247667Y011917
X0250722Y0118217
X0253788Y0119131
X0256314Y0121096
X0259042Y012277
X0261282Y0133638
X025902Y01359
X02675Y014
X0265Y0145
X02675Y015
Y016
X02375Y014
X02325
Y013
X02375
X0235Y0125
X02275Y01225
X0239Y01145
X0235Y0105
X02375Y01
X02425
X02475
X02525
X02575
X02625
X0265Y0095
X026
X0255
X025
X0245
X024
X0235
X023
X02325Y01
X02175
X0215Y0095
X023Y0055
X0235
X024
X0245
X025
X0248855Y0046627
X0246914Y0044082
X024508Y004146
X0243411Y003873
X0243512Y0035531
X024775Y0030836
X0250905Y0030298
X0253846Y0031559
X0256314Y0033596
X0259042Y003527
X0265Y0035
X0261282Y0046138
X025902Y00484
X02675Y005
X0265Y0055
X02675Y006
Y007
Y008
X02425Y005
X02375
X02325
X0235Y0045
X024
X02375Y004
X02325
X023Y0045
X02205Y00425
X02125
X0209331Y0030831
X0205Y0030831
Y00265
X0200669
Y0030831
Y0022169
X0205
X0209331
X0209331Y00265
X02275Y00345
X0239Y0027
X024Y0015
X0235
X01875Y0017
X01775Y00195
X01575Y0019
X0135Y0015
X01315Y0046
Y00495
Y0053
X0137Y00605
X0148Y0059
Y00625
Y00555
Y0052
Y00485
X01405Y0045
X0124Y00425
X01325Y00825
Y009
X013Y00925
X01275Y0095
X0125Y00975
X012Y01025
X01175Y0105
X0115Y01075
X01125Y011
X0113Y00825
X0135Y00875
X01375Y0085
X014Y00825
X0147Y00775
X01585
Y0074
X01985Y00435
X02725Y004
X02775
X028Y0045
X0285
X0275
X02775Y005
X02725
X0275Y0055
X028
X02775Y006
X02725
X0275Y0065
X028
X02825Y007
X02775
X02725
X0275Y0075
X028
X0285
X02875Y008
X02925
X029375Y0075217
X0291389Y0073056
X0289848Y0070252
X0290242Y0067076
X0300715Y0065048
X03025Y006
X03075
X03125
X031Y0055
X0305
X03075Y005
X03125
X031Y0045
X0305
X03
X03025Y005
Y004
X03075
X03125
X031Y0035
X0305
X03
X03025Y003
X03075
X03125
X031Y0025
X0305
X03
X03025Y002
X03075
X03125
X031Y0015
X0305
X03
X02975Y002
X02925
X02975Y003
Y004
X028Y0035
X0275
X027
X02725Y003
X02775
X027Y0055
Y0065
Y0075
X02725Y008
X02775
X02825
X0296027Y0077465
X0298429Y0079579
X0301585Y0080112
X0309707Y0071958
X031Y0095
X0305
X03
X0295
X02975Y01
X03025
X03075
X03125
X031Y0105
X0305
X03
X0295
X02975Y011
X03025
X03075
X03125
X031Y0115
X0305
X03
X03025Y012
X03075
X03125
X031Y0125
X0305
X03
X03025Y013
X03075
X03125
X031Y0135
X0305
X03075Y014
X03125
X031Y0145
X0305
X03025Y014
X0301986Y0152883
X0299537Y0150823
X0289395Y0155368
X028955Y0158564
X0291338Y0161218
X0293703Y0163373
X029593Y0165671
X0298436Y0167662
X0301603Y0168117
X0310117Y0160133
X02825Y016
X02775
X02725
X0275Y0165
X028
X0285
Y0155
X028
X0275
X027
X02725Y015
X02775
X028Y0145
X0275
X027
X02725Y014
X02775
X028Y0135
X0275
X027
X02725Y013
X02775
X028Y0125
X0275
X027
X02725Y012
X02775
X028Y0105
Y0095
X0275
X027
X02975Y012
Y013
X027Y0165
T02
X0036Y01585
X0046
X0046Y01685
X0036
X0056
Y01585
X0066
X0076Y01585
X0076Y01685
X0066
X0086
X0086Y01585
X0096
Y01685
X0106
Y01585
X0116
Y01685
X0126
X0126Y01585
X0136
X0136Y01685
X0146
Y01585
X0156
X0166Y01585
X0166Y01685
X0156
X0176
X0176Y01585
X0186
Y01685
X0196
Y01585
X0206
Y01685
X0216
X0216Y01585
X0226
X0226Y01685
T03
X00105Y00925
X00205
Y01025
X00105Y01025
Y01125
X00205Y01125
Y01225
X00105
Y01325
X00205
Y01425
X00105
X00325Y01225
Y01125
X00425
Y01225
Y01025
X00325
Y00925
X00425Y00925
T04
X00105Y0039
X0082Y00355
X00435Y01325
X01465Y00255
T05
X0014095Y00065
X0025905
X0051595
X0063406
T06
X0016827Y0072949
Y01635
X0245173
X0245173Y0072949
M30
