G04 Layer_Color=8388736*
%FSLAX25Y25*%
%MOIN*%
G70*
G01*
G75*
%ADD75R,0.02568X0.02962*%
%ADD76R,0.02568X0.03159*%
%ADD77R,0.03159X0.02568*%
%ADD78R,0.02962X0.02568*%
%ADD79O,0.01584X0.04340*%
%ADD80O,0.04340X0.01584*%
%ADD81R,0.12805X0.12805*%
%ADD82R,0.04143X0.03750*%
%ADD83R,0.05718X0.04931*%
%ADD84R,0.04143X0.04340*%
%ADD85R,0.04537X0.04340*%
%ADD86R,0.04183X0.04380*%
%ADD87R,0.11309X0.07175*%
%ADD88R,0.04931X0.02962*%
%ADD89R,0.04537X0.03750*%
%ADD90R,0.03356X0.06506*%
%ADD91R,0.06506X0.04931*%
%ADD92R,0.04340X0.04143*%
%ADD93R,0.04340X0.04537*%
%ADD94R,0.20600X0.40600*%
G04:AMPARAMS|DCode=95|XSize=47.34mil|YSize=92.61mil|CornerRadius=0mil|HoleSize=0mil|Usage=FLASHONLY|Rotation=315.000|XOffset=0mil|YOffset=0mil|HoleType=Round|Shape=Rectangle|*
%AMROTATEDRECTD95*
4,1,4,-0.04948,-0.01601,0.01601,0.04948,0.04948,0.01601,-0.01601,-0.04948,-0.04948,-0.01601,0.0*
%
%ADD95ROTATEDRECTD95*%

%ADD96P,0.06416X4X360.0*%
G04:AMPARAMS|DCode=97|XSize=47.24mil|YSize=29.53mil|CornerRadius=2.61mil|HoleSize=0mil|Usage=FLASHONLY|Rotation=180.000|XOffset=0mil|YOffset=0mil|HoleType=Round|Shape=RoundedRectangle|*
%AMROUNDEDRECTD97*
21,1,0.04724,0.02431,0,0,180.0*
21,1,0.04203,0.02953,0,0,180.0*
1,1,0.00522,-0.02101,0.01215*
1,1,0.00522,0.02101,0.01215*
1,1,0.00522,0.02101,-0.01215*
1,1,0.00522,-0.02101,-0.01215*
%
%ADD97ROUNDEDRECTD97*%
G04:AMPARAMS|DCode=98|XSize=62.99mil|YSize=29.53mil|CornerRadius=2.61mil|HoleSize=0mil|Usage=FLASHONLY|Rotation=180.000|XOffset=0mil|YOffset=0mil|HoleType=Round|Shape=RoundedRectangle|*
%AMROUNDEDRECTD98*
21,1,0.06299,0.02431,0,0,180.0*
21,1,0.05778,0.02953,0,0,180.0*
1,1,0.00522,-0.02889,0.01215*
1,1,0.00522,0.02889,0.01215*
1,1,0.00522,0.02889,-0.01215*
1,1,0.00522,-0.02889,-0.01215*
%
%ADD98ROUNDEDRECTD98*%
G04:AMPARAMS|DCode=99|XSize=70.87mil|YSize=29.53mil|CornerRadius=2.61mil|HoleSize=0mil|Usage=FLASHONLY|Rotation=180.000|XOffset=0mil|YOffset=0mil|HoleType=Round|Shape=RoundedRectangle|*
%AMROUNDEDRECTD99*
21,1,0.07087,0.02431,0,0,180.0*
21,1,0.06565,0.02953,0,0,180.0*
1,1,0.00522,-0.03283,0.01215*
1,1,0.00522,0.03283,0.01215*
1,1,0.00522,0.03283,-0.01215*
1,1,0.00522,-0.03283,-0.01215*
%
%ADD99ROUNDEDRECTD99*%
G04:AMPARAMS|DCode=100|XSize=25.68mil|YSize=29.62mil|CornerRadius=0mil|HoleSize=0mil|Usage=FLASHONLY|Rotation=135.000|XOffset=0mil|YOffset=0mil|HoleType=Round|Shape=Rectangle|*
%AMROTATEDRECTD100*
4,1,4,0.01955,0.00139,-0.00139,-0.01955,-0.01955,-0.00139,0.00139,0.01955,0.01955,0.00139,0.0*
%
%ADD100ROTATEDRECTD100*%

%ADD101R,0.02765X0.02765*%
%ADD102R,0.02362X0.06102*%
%ADD103R,0.03543X0.06102*%
G04:AMPARAMS|DCode=104|XSize=47.24mil|YSize=29.53mil|CornerRadius=2.61mil|HoleSize=0mil|Usage=FLASHONLY|Rotation=270.000|XOffset=0mil|YOffset=0mil|HoleType=Round|Shape=RoundedRectangle|*
%AMROUNDEDRECTD104*
21,1,0.04724,0.02431,0,0,270.0*
21,1,0.04203,0.02953,0,0,270.0*
1,1,0.00522,-0.01215,-0.02101*
1,1,0.00522,-0.01215,0.02101*
1,1,0.00522,0.01215,0.02101*
1,1,0.00522,0.01215,-0.02101*
%
%ADD104ROUNDEDRECTD104*%
G04:AMPARAMS|DCode=105|XSize=62.99mil|YSize=29.53mil|CornerRadius=2.61mil|HoleSize=0mil|Usage=FLASHONLY|Rotation=270.000|XOffset=0mil|YOffset=0mil|HoleType=Round|Shape=RoundedRectangle|*
%AMROUNDEDRECTD105*
21,1,0.06299,0.02431,0,0,270.0*
21,1,0.05778,0.02953,0,0,270.0*
1,1,0.00522,-0.01215,-0.02889*
1,1,0.00522,-0.01215,0.02889*
1,1,0.00522,0.01215,0.02889*
1,1,0.00522,0.01215,-0.02889*
%
%ADD105ROUNDEDRECTD105*%
G04:AMPARAMS|DCode=106|XSize=70.87mil|YSize=29.53mil|CornerRadius=2.61mil|HoleSize=0mil|Usage=FLASHONLY|Rotation=270.000|XOffset=0mil|YOffset=0mil|HoleType=Round|Shape=RoundedRectangle|*
%AMROUNDEDRECTD106*
21,1,0.07087,0.02431,0,0,270.0*
21,1,0.06565,0.02953,0,0,270.0*
1,1,0.00522,-0.01215,-0.03283*
1,1,0.00522,-0.01215,0.03283*
1,1,0.00522,0.01215,0.03283*
1,1,0.00522,0.01215,-0.03283*
%
%ADD106ROUNDEDRECTD106*%
%ADD107R,0.09261X0.04734*%
%ADD108R,0.04537X0.04537*%
%ADD109O,0.06112X0.01781*%
%ADD110O,0.01781X0.06112*%
%ADD111C,0.06600*%
%ADD112C,0.04143*%
%ADD113R,0.06506X0.06506*%
%ADD114C,0.06506*%
%ADD115C,0.26575*%
%ADD116C,0.02800*%
D75*
X210000Y47032D02*
D03*
Y50968D02*
D03*
X206500Y47032D02*
D03*
Y50968D02*
D03*
X203000Y47032D02*
D03*
Y50968D02*
D03*
X213500Y47032D02*
D03*
Y50968D02*
D03*
X217000Y47032D02*
D03*
Y50968D02*
D03*
X220500Y47032D02*
D03*
Y50968D02*
D03*
X224000Y34532D02*
D03*
Y38469D02*
D03*
X227500Y30968D02*
D03*
Y27031D02*
D03*
Y22968D02*
D03*
Y19031D02*
D03*
X224000Y15469D02*
D03*
Y11531D02*
D03*
X105000Y50468D02*
D03*
X105000Y46532D02*
D03*
X220500Y136031D02*
D03*
Y139969D02*
D03*
X217000Y136031D02*
D03*
Y139969D02*
D03*
X213500Y136031D02*
D03*
Y139969D02*
D03*
X210000Y136031D02*
D03*
Y139969D02*
D03*
X206500Y136031D02*
D03*
Y139969D02*
D03*
X203000Y136031D02*
D03*
Y139969D02*
D03*
X243000Y30968D02*
D03*
Y27031D02*
D03*
X251000Y22968D02*
D03*
Y19031D02*
D03*
X287000Y14968D02*
D03*
Y11032D02*
D03*
X275000Y18969D02*
D03*
Y15032D02*
D03*
X271000Y18969D02*
D03*
Y15032D02*
D03*
X292000Y46000D02*
D03*
Y42063D02*
D03*
X291500Y133468D02*
D03*
Y129532D02*
D03*
X290000Y102469D02*
D03*
Y98532D02*
D03*
X274500Y106468D02*
D03*
Y102532D02*
D03*
X270500Y106468D02*
D03*
Y102532D02*
D03*
X224000Y122531D02*
D03*
Y126469D02*
D03*
X227500Y118468D02*
D03*
Y114532D02*
D03*
X224000Y102469D02*
D03*
Y98532D02*
D03*
X247500Y110468D02*
D03*
Y106532D02*
D03*
X251000Y110468D02*
D03*
Y106532D02*
D03*
X243000Y118468D02*
D03*
Y114532D02*
D03*
X74500Y83969D02*
D03*
Y80032D02*
D03*
X78000Y83969D02*
D03*
Y80032D02*
D03*
X189500Y104469D02*
D03*
Y100531D02*
D03*
X151500Y132531D02*
D03*
Y136469D02*
D03*
X155500Y132531D02*
D03*
Y136469D02*
D03*
X142000Y144532D02*
D03*
Y148468D02*
D03*
X138500Y144532D02*
D03*
Y148468D02*
D03*
X127000Y144032D02*
D03*
Y147968D02*
D03*
D76*
X224000Y47130D02*
D03*
Y50870D02*
D03*
Y136130D02*
D03*
Y139870D02*
D03*
X247500Y22870D02*
D03*
Y19130D02*
D03*
X290500Y14870D02*
D03*
Y11130D02*
D03*
X287000Y19130D02*
D03*
Y22870D02*
D03*
X286500Y106630D02*
D03*
Y110370D02*
D03*
X286500Y102370D02*
D03*
Y98630D02*
D03*
X227500Y110370D02*
D03*
Y106630D02*
D03*
D77*
X235240Y31000D02*
D03*
X231500D02*
D03*
X235370Y23000D02*
D03*
X231630D02*
D03*
X124228Y46000D02*
D03*
X127969Y46000D02*
D03*
X235370Y118500D02*
D03*
X231630D02*
D03*
X235370Y110500D02*
D03*
X231630D02*
D03*
X140630Y55500D02*
D03*
X144370D02*
D03*
D78*
X243468Y23000D02*
D03*
X239531D02*
D03*
X235469Y27000D02*
D03*
X231532D02*
D03*
X196968Y55500D02*
D03*
X193032D02*
D03*
X191469Y42500D02*
D03*
X187531D02*
D03*
X184968Y19500D02*
D03*
X181032D02*
D03*
X124031Y49500D02*
D03*
X127969D02*
D03*
X124031Y53000D02*
D03*
X127969D02*
D03*
X282968Y23000D02*
D03*
X279031D02*
D03*
X282469Y110500D02*
D03*
X278532D02*
D03*
X196968Y144500D02*
D03*
X193032D02*
D03*
X191469Y132000D02*
D03*
X187531D02*
D03*
X235469Y114500D02*
D03*
X231532D02*
D03*
X243468Y110500D02*
D03*
X239531D02*
D03*
X91969Y147000D02*
D03*
X88032D02*
D03*
X91969Y143500D02*
D03*
X88032D02*
D03*
X66969Y116500D02*
D03*
X63032D02*
D03*
X67000Y113000D02*
D03*
X63063D02*
D03*
X66969Y109500D02*
D03*
X63032D02*
D03*
X66969Y106000D02*
D03*
X63032D02*
D03*
X140532Y48500D02*
D03*
X144468Y48500D02*
D03*
X140532Y52000D02*
D03*
X144468D02*
D03*
X140532Y59000D02*
D03*
X144468D02*
D03*
X140532Y62500D02*
D03*
X144468D02*
D03*
X151031Y74000D02*
D03*
X154969D02*
D03*
X151031Y77500D02*
D03*
X154969D02*
D03*
X164032Y104000D02*
D03*
X167968D02*
D03*
X164032Y107500D02*
D03*
X167968D02*
D03*
X164032Y111000D02*
D03*
X167968D02*
D03*
X164000Y114500D02*
D03*
X167937D02*
D03*
X109500Y147000D02*
D03*
X113437D02*
D03*
X109531Y143500D02*
D03*
X113469D02*
D03*
X105468Y147000D02*
D03*
X101532D02*
D03*
X105468Y143500D02*
D03*
X101532Y143500D02*
D03*
D79*
X211890Y35850D02*
D03*
X209921Y35850D02*
D03*
X207953D02*
D03*
X205984D02*
D03*
X204016Y35850D02*
D03*
X202047D02*
D03*
X200079D02*
D03*
X198110Y35850D02*
D03*
Y17150D02*
D03*
X200079D02*
D03*
X202047D02*
D03*
X204016D02*
D03*
X205984D02*
D03*
X207953D02*
D03*
X209921D02*
D03*
X211890Y17150D02*
D03*
Y123350D02*
D03*
X209921D02*
D03*
X207953D02*
D03*
X205984D02*
D03*
X204016D02*
D03*
X202047D02*
D03*
X200079D02*
D03*
X198110D02*
D03*
X198110Y104650D02*
D03*
X200079Y104650D02*
D03*
X202047D02*
D03*
X204016D02*
D03*
X205984D02*
D03*
X207953D02*
D03*
X209921D02*
D03*
X211890D02*
D03*
D80*
X195650Y33390D02*
D03*
X195650Y31421D02*
D03*
Y29453D02*
D03*
Y27484D02*
D03*
Y25516D02*
D03*
Y23547D02*
D03*
Y21579D02*
D03*
Y19610D02*
D03*
X214350D02*
D03*
Y21579D02*
D03*
Y23547D02*
D03*
Y25516D02*
D03*
X214350Y27484D02*
D03*
Y29453D02*
D03*
X214350Y31421D02*
D03*
Y33390D02*
D03*
X195650Y120890D02*
D03*
Y118921D02*
D03*
Y116953D02*
D03*
Y114984D02*
D03*
X195650Y113016D02*
D03*
X195650Y111047D02*
D03*
Y109079D02*
D03*
X195650Y107110D02*
D03*
X214350D02*
D03*
X214350Y109079D02*
D03*
Y111047D02*
D03*
Y113016D02*
D03*
Y114984D02*
D03*
Y116953D02*
D03*
Y118921D02*
D03*
Y120890D02*
D03*
D81*
X205000Y26500D02*
D03*
Y114000D02*
D03*
D82*
X196913Y46669D02*
D03*
X191500Y46669D02*
D03*
Y51000D02*
D03*
X196815Y51000D02*
D03*
X196913Y136000D02*
D03*
X191500Y136000D02*
D03*
Y140331D02*
D03*
X196815Y140331D02*
D03*
D83*
X110437Y51920D02*
D03*
X118705Y51920D02*
D03*
Y45424D02*
D03*
X110437Y45423D02*
D03*
D84*
X69500Y30350D02*
D03*
Y36650D02*
D03*
X63500Y30350D02*
D03*
Y36650D02*
D03*
X27500Y32850D02*
D03*
Y39150D02*
D03*
X98500Y11850D02*
D03*
Y18150D02*
D03*
X104500Y11850D02*
D03*
Y18150D02*
D03*
D85*
X82150Y43000D02*
D03*
X75850D02*
D03*
X40850Y65500D02*
D03*
X47150D02*
D03*
X72850D02*
D03*
X79150D02*
D03*
X72850Y59500D02*
D03*
X79150D02*
D03*
X110850Y18000D02*
D03*
X117150D02*
D03*
D86*
X69827Y43000D02*
D03*
X63173D02*
D03*
D87*
X53500Y30500D02*
D03*
Y40500D02*
D03*
D88*
X33776Y39240D02*
D03*
Y35500D02*
D03*
X33776Y31760D02*
D03*
X43224D02*
D03*
Y39240D02*
D03*
X130276Y18740D02*
D03*
Y15000D02*
D03*
Y11260D02*
D03*
X139724D02*
D03*
Y18740D02*
D03*
D89*
X71673Y10831D02*
D03*
Y2169D02*
D03*
X43327Y10831D02*
D03*
Y2169D02*
D03*
X34173Y10831D02*
D03*
Y2169D02*
D03*
X5827Y10831D02*
D03*
Y2169D02*
D03*
D90*
X66358Y13390D02*
D03*
X60453D02*
D03*
X48642Y13390D02*
D03*
X28858Y13390D02*
D03*
X22953D02*
D03*
X11142D02*
D03*
D91*
X65905Y65453D02*
D03*
Y59547D02*
D03*
X54094D02*
D03*
Y65453D02*
D03*
D92*
X152650Y11000D02*
D03*
X146350D02*
D03*
X152650Y19000D02*
D03*
X146350D02*
D03*
X110850Y12000D02*
D03*
X117150D02*
D03*
D93*
X123500Y11850D02*
D03*
Y18150D02*
D03*
D94*
X10500Y39000D02*
D03*
D95*
X263106Y129394D02*
D03*
X254894Y137606D02*
D03*
X263106Y41894D02*
D03*
X254894Y50106D02*
D03*
D96*
X254824Y129324D02*
D03*
Y41824D02*
D03*
D97*
X256500Y27724D02*
D03*
Y23000D02*
D03*
Y18276D02*
D03*
X265949Y27724D02*
D03*
X256276Y115224D02*
D03*
Y110500D02*
D03*
Y105776D02*
D03*
X265724Y115224D02*
D03*
D98*
X265161Y23000D02*
D03*
X264937Y110500D02*
D03*
D99*
X264768Y18276D02*
D03*
X264543Y105776D02*
D03*
D100*
X250392Y37392D02*
D03*
X247608Y34608D02*
D03*
X296392Y69392D02*
D03*
X293608Y66608D02*
D03*
X296392Y156892D02*
D03*
X293608Y154108D02*
D03*
X250892Y125392D02*
D03*
X248108Y122608D02*
D03*
D101*
X274772Y23000D02*
D03*
X271228D02*
D03*
X274272Y110500D02*
D03*
X270728D02*
D03*
X49272Y145000D02*
D03*
X45728D02*
D03*
X49272Y150000D02*
D03*
X45728D02*
D03*
D102*
X286941Y28661D02*
D03*
X292059Y36339D02*
D03*
X286941D02*
D03*
X286441Y116161D02*
D03*
X291559Y123839D02*
D03*
X286441D02*
D03*
D103*
X291469Y28661D02*
D03*
X290968Y116161D02*
D03*
D104*
X287276Y51276D02*
D03*
X292000D02*
D03*
X296724D02*
D03*
X287276Y60724D02*
D03*
X286776Y138776D02*
D03*
X291500Y138776D02*
D03*
X296224Y138776D02*
D03*
X286776Y148224D02*
D03*
D105*
X292000Y59937D02*
D03*
X291500Y147437D02*
D03*
D106*
X296724Y59543D02*
D03*
X296224Y147043D02*
D03*
D107*
X308500Y67193D02*
D03*
Y78807D02*
D03*
X308405Y154693D02*
D03*
X308405Y166307D02*
D03*
D108*
X302594Y73000D02*
D03*
X302500Y160500D02*
D03*
D109*
X84685Y83878D02*
D03*
Y85847D02*
D03*
X84685Y87815D02*
D03*
X84685Y89784D02*
D03*
Y91752D02*
D03*
Y93721D02*
D03*
Y95689D02*
D03*
Y97658D02*
D03*
Y99626D02*
D03*
X84685Y101594D02*
D03*
Y103563D02*
D03*
X84685Y105532D02*
D03*
Y107500D02*
D03*
Y109468D02*
D03*
Y111437D02*
D03*
Y113406D02*
D03*
X84685Y115374D02*
D03*
Y117342D02*
D03*
Y119311D02*
D03*
X84685Y121280D02*
D03*
Y123248D02*
D03*
Y125217D02*
D03*
Y127185D02*
D03*
Y129154D02*
D03*
X84685Y131122D02*
D03*
X145315D02*
D03*
Y129154D02*
D03*
Y127185D02*
D03*
Y125216D02*
D03*
X145315Y123248D02*
D03*
Y121280D02*
D03*
X145315Y119311D02*
D03*
Y117342D02*
D03*
Y115374D02*
D03*
Y113406D02*
D03*
Y111437D02*
D03*
X145315Y109468D02*
D03*
Y107500D02*
D03*
Y105532D02*
D03*
X145315Y103563D02*
D03*
Y101594D02*
D03*
Y99626D02*
D03*
Y97658D02*
D03*
Y95689D02*
D03*
X145315Y93721D02*
D03*
Y91752D02*
D03*
X145315Y89784D02*
D03*
Y87815D02*
D03*
Y85847D02*
D03*
Y83878D02*
D03*
D110*
X91378Y137815D02*
D03*
X93347D02*
D03*
X95315D02*
D03*
X97284D02*
D03*
X99252Y137815D02*
D03*
X101221D02*
D03*
X103189Y137815D02*
D03*
X105157D02*
D03*
X107126D02*
D03*
X109095D02*
D03*
X111063D02*
D03*
X113031Y137815D02*
D03*
X115000D02*
D03*
X116969D02*
D03*
X118937Y137815D02*
D03*
X120905D02*
D03*
X122874D02*
D03*
X124843D02*
D03*
X126811D02*
D03*
X128779Y137815D02*
D03*
X130748D02*
D03*
X132717Y137815D02*
D03*
X134685D02*
D03*
X136653D02*
D03*
X138622D02*
D03*
Y77185D02*
D03*
X136653Y77185D02*
D03*
X134685D02*
D03*
X132717D02*
D03*
X130748D02*
D03*
X128779D02*
D03*
X126811Y77185D02*
D03*
X124843D02*
D03*
X122874D02*
D03*
X120905Y77185D02*
D03*
X118937D02*
D03*
X116969D02*
D03*
X115000D02*
D03*
X113031D02*
D03*
X111063Y77185D02*
D03*
X109095D02*
D03*
X107126Y77185D02*
D03*
X105157D02*
D03*
X103189D02*
D03*
X101221Y77185D02*
D03*
X99252D02*
D03*
X97284D02*
D03*
X95315D02*
D03*
X93347Y77185D02*
D03*
X91378Y77185D02*
D03*
D111*
X82000Y35500D02*
D03*
X146500Y25500D02*
D03*
X43500Y132500D02*
D03*
D112*
X63406Y6500D02*
D03*
X51595D02*
D03*
X25905D02*
D03*
X14095D02*
D03*
D113*
X10500Y142500D02*
D03*
X36000Y158500D02*
D03*
X42500Y92500D02*
D03*
D114*
X20500Y142500D02*
D03*
X10500Y132500D02*
D03*
X20500D02*
D03*
X10500Y122500D02*
D03*
X20500D02*
D03*
X10500Y112500D02*
D03*
X20500Y112500D02*
D03*
X10500Y102500D02*
D03*
X20500Y102500D02*
D03*
X10500Y92500D02*
D03*
X20500D02*
D03*
X226000Y168500D02*
D03*
X216000D02*
D03*
X206000D02*
D03*
X196000D02*
D03*
X186000D02*
D03*
X176000D02*
D03*
X166000D02*
D03*
X156000D02*
D03*
X146000D02*
D03*
X136000D02*
D03*
X126000D02*
D03*
X116000D02*
D03*
X106000D02*
D03*
X96000D02*
D03*
X86000D02*
D03*
X76000D02*
D03*
X66000D02*
D03*
X56000D02*
D03*
X46000D02*
D03*
X36000D02*
D03*
X226000Y158500D02*
D03*
X216000D02*
D03*
X206000Y158500D02*
D03*
X196000D02*
D03*
X186000Y158500D02*
D03*
X176000D02*
D03*
X166000D02*
D03*
X156000Y158500D02*
D03*
X146000D02*
D03*
X136000Y158500D02*
D03*
X126000D02*
D03*
X116000Y158500D02*
D03*
X106000D02*
D03*
X96000Y158500D02*
D03*
X86000D02*
D03*
X76000D02*
D03*
X66000Y158500D02*
D03*
X56000D02*
D03*
X46000Y158500D02*
D03*
X32500Y92500D02*
D03*
X42500Y102500D02*
D03*
X32500D02*
D03*
X42500Y112500D02*
D03*
X32500D02*
D03*
X42500Y122500D02*
D03*
X32500Y122500D02*
D03*
D115*
X16827Y72949D02*
D03*
Y163500D02*
D03*
X245173Y72949D02*
D03*
X245173Y163500D02*
D03*
D116*
X105000Y42500D02*
D03*
Y54500D02*
D03*
X157500Y19000D02*
D03*
Y11000D02*
D03*
X135000Y15000D02*
D03*
X98500Y7000D02*
D03*
X104500D02*
D03*
X110850Y7150D02*
D03*
X47547Y59547D02*
D03*
X28858Y22358D02*
D03*
X85000Y147000D02*
D03*
X95000D02*
D03*
X109500Y150000D02*
D03*
X116500Y147000D02*
D03*
Y143500D02*
D03*
X123500Y144000D02*
D03*
X127000Y151000D02*
D03*
X105500Y149969D02*
D03*
X142000Y151500D02*
D03*
X135000Y145000D02*
D03*
X132500Y127500D02*
D03*
X239000Y114500D02*
D03*
X120000Y102500D02*
D03*
X117500Y105000D02*
D03*
X52000Y145000D02*
D03*
X42500D02*
D03*
X135000Y130000D02*
D03*
X137500Y132500D02*
D03*
X85000Y143500D02*
D03*
X35000Y142500D02*
D03*
Y147500D02*
D03*
X52000Y150000D02*
D03*
X42500D02*
D03*
X187500Y17000D02*
D03*
X177500Y19500D02*
D03*
X227500Y34500D02*
D03*
X212500Y42500D02*
D03*
X220500D02*
D03*
X227500Y122500D02*
D03*
X212500Y132500D02*
D03*
X220500D02*
D03*
X189500Y97500D02*
D03*
X151500Y140000D02*
D03*
X155500D02*
D03*
X122500Y150000D02*
D03*
X186500Y104500D02*
D03*
X171500Y114500D02*
D03*
Y111000D02*
D03*
Y107500D02*
D03*
Y104000D02*
D03*
X160000Y111000D02*
D03*
Y107500D02*
D03*
X157500Y109000D02*
D03*
X38500Y35500D02*
D03*
X63500Y26000D02*
D03*
X69500D02*
D03*
X66500Y20000D02*
D03*
X140000Y82500D02*
D03*
X137500Y85000D02*
D03*
X135000Y87500D02*
D03*
X132500Y90000D02*
D03*
X130000Y92500D02*
D03*
X127500Y95000D02*
D03*
X125000Y97500D02*
D03*
X95000Y127500D02*
D03*
X97500Y125000D02*
D03*
X72500Y108000D02*
D03*
X65000Y120000D02*
D03*
X60000Y116500D02*
D03*
Y113000D02*
D03*
Y109500D02*
D03*
Y106000D02*
D03*
X71000Y84000D02*
D03*
X74500Y76500D02*
D03*
X92500Y107500D02*
D03*
X90000Y86000D02*
D03*
X91500Y82500D02*
D03*
X107000D02*
D03*
X113000D02*
D03*
X132500D02*
D03*
X60500Y20000D02*
D03*
X50000Y72500D02*
D03*
X87500Y134500D02*
D03*
X108500Y132500D02*
D03*
X115000Y107500D02*
D03*
X112500Y110000D02*
D03*
X110000Y112500D02*
D03*
X107500Y115000D02*
D03*
X78000Y76500D02*
D03*
X105000Y117500D02*
D03*
X98500Y143500D02*
D03*
Y147000D02*
D03*
X138500Y151500D02*
D03*
X152500Y147500D02*
D03*
X152000Y124500D02*
D03*
X151500Y129000D02*
D03*
X143500Y140000D02*
D03*
X146500Y147500D02*
D03*
X140500Y45000D02*
D03*
X148000Y48500D02*
D03*
Y52000D02*
D03*
X124000Y42500D02*
D03*
X131500Y53000D02*
D03*
Y49500D02*
D03*
Y46000D02*
D03*
X137000Y60500D02*
D03*
X148000Y55500D02*
D03*
Y59000D02*
D03*
X147000Y77500D02*
D03*
X158500D02*
D03*
Y74000D02*
D03*
X148000Y62500D02*
D03*
X198500Y132500D02*
D03*
Y43500D02*
D03*
X239000Y27000D02*
D03*
X209331Y30831D02*
D03*
X209331Y26500D02*
D03*
X209331Y22169D02*
D03*
X205000Y30831D02*
D03*
Y26500D02*
D03*
Y22169D02*
D03*
X200669Y30831D02*
D03*
Y26500D02*
D03*
Y22169D02*
D03*
X205000Y114000D02*
D03*
Y109669D02*
D03*
Y118331D02*
D03*
X209331Y114000D02*
D03*
Y109669D02*
D03*
X200669Y114000D02*
D03*
X200669Y109669D02*
D03*
X209331Y118331D02*
D03*
X200669D02*
D03*
M02*
